<svg version="1.1" id="Layer_1" xmlns="http://www.w3.org/2000/svg" xmlns:xlink="http://www.w3.org/1999/xlink" x="0px" y="0px"
	 width="100%" viewBox="0 0 768 608" enable-background="new 0 0 768 608" xml:space="preserve">
<path fill="#FFFFFF" opacity="1.000000" stroke="none" 
	d="
M634.230835,306.852905 
	C637.133667,311.895844 639.391846,316.804443 641.152893,322.901672 
	C633.823059,322.223083 627.289368,321.621613 620.756836,321.006592 
	C620.261841,320.959991 619.778931,320.751617 619.285217,320.728210 
	C604.531433,320.028259 606.228455,318.937408 605.110596,331.946533 
	C604.788696,335.692505 603.612488,338.756134 600.742615,341.093964 
	C594.491333,346.186218 587.351257,349.255829 579.252258,349.295349 
	C571.885864,349.331329 568.818726,345.358826 569.612488,338.152710 
	C570.268311,332.200165 570.467346,326.198608 571.011963,320.231842 
	C571.253906,317.580841 570.636902,316.108032 567.628906,316.141266 
	C558.797852,316.238983 549.965454,316.215149 541.133545,316.228882 
	C538.487610,316.232971 537.190613,317.501038 537.069092,320.178223 
	C536.954773,322.695129 537.600647,324.530121 540.469238,324.621033 
	C543.668030,324.722443 544.190186,326.736115 544.186096,329.357819 
	C544.166809,341.689484 544.127686,354.022003 544.263367,366.352386 
	C544.293884,369.122833 542.653625,370.993469 541.595520,373.205078 
	C529.477051,398.534760 511.926025,419.332001 489.188751,435.745453 
	C481.889282,441.014771 474.232971,445.755951 466.026794,449.510101 
	C462.347229,451.193390 460.946869,453.335571 461.810425,457.713684 
	C464.610260,471.908905 462.271698,485.099670 453.285370,496.920593 
	C446.215546,506.220520 436.552216,510.802979 425.468414,511.778595 
	C404.233582,513.647827 382.901550,513.506653 361.659119,511.814362 
	C337.949890,509.925568 321.332489,486.655457 325.234802,461.628387 
	C326.691254,452.287659 326.672882,452.322906 318.205261,447.909180 
	C287.234528,431.765686 264.215393,407.849213 247.873581,377.053040 
	C244.343658,370.400848 243.157516,363.880737 243.287338,356.700745 
	C243.449966,347.706848 243.542923,338.709503 243.476578,329.714996 
	C243.455215,326.817780 243.951309,324.816010 247.303268,324.536835 
	C250.303864,324.286926 251.060928,322.378723 250.797119,319.616150 
	C250.507553,316.583771 248.480560,316.375122 246.169067,316.372986 
	C237.838257,316.365295 229.506149,316.422058 221.177216,316.287903 
	C217.189590,316.223663 215.737839,318.091553 216.167236,321.831726 
	C216.736481,326.790039 217.132690,331.776581 217.926422,336.698914 
	C219.410370,345.901550 215.251587,350.581543 205.803085,349.899109 
	C199.340439,349.432373 193.505112,347.103546 188.155380,343.510437 
	C183.924973,340.669067 182.126999,336.543274 181.980392,331.586212 
	C181.911438,329.254486 181.753448,326.910492 181.910248,324.590607 
	C182.138184,321.218292 180.515030,320.289215 177.417023,320.295685 
	C168.569641,320.314117 159.799194,321.034821 151.097656,322.614258 
	C149.654266,322.876251 148.048462,323.700439 146.964539,322.141754 
	C145.959717,320.696808 146.892899,319.256165 147.575134,317.933746 
	C150.018173,313.198120 152.339935,308.389679 155.017181,303.788971 
	C156.626755,301.023010 156.674957,298.851837 154.999771,295.993591 
	C151.666245,290.305908 148.258133,284.555115 147.273407,278.049133 
	C148.404419,276.432190 149.841339,276.651184 151.109818,276.708435 
	C162.340790,277.215118 173.332932,275.591278 184.247040,273.159851 
	C185.536224,272.872650 186.883118,272.730896 188.204620,272.721893 
	C194.114182,272.681610 196.134659,274.423431 197.297562,280.272186 
	C197.635269,281.970703 197.498367,284.590668 200.006317,284.245331 
	C202.457291,283.907867 201.164291,281.573669 201.041306,280.084473 
	C200.740021,276.436005 200.119797,272.808319 199.936539,269.156769 
	C199.568604,261.825745 202.659943,258.096619 209.858521,256.542328 
	C217.293289,254.937073 224.806946,255.817001 232.277863,255.794647 
	C235.927124,255.783737 237.457825,254.381531 238.680740,251.054184 
	C260.956177,190.446701 303.984802,154.123444 367.238831,141.632339 
	C373.066284,140.481537 375.279297,138.137878 375.738556,132.026672 
	C375.788452,131.362930 375.604767,130.400253 375.969482,130.084427 
	C380.337036,126.302589 379.247833,120.401810 380.988525,115.686996 
	C382.556274,111.440590 384.896545,106.885086 384.967712,101.963310 
	C385.047729,96.428505 388.126953,94.494667 393.494232,96.633545 
	C395.711792,91.860649 399.974945,92.414886 403.840240,93.300797 
	C409.519989,94.602562 413.815857,97.889763 415.203308,103.965324 
	C416.007172,107.485466 415.658081,110.942146 414.081543,114.205635 
	C412.319550,117.852966 412.018951,121.593559 413.502472,125.335129 
	C415.363373,130.028351 416.575531,134.799149 415.948151,139.831390 
	C418.596436,141.621002 421.504517,141.561218 424.227509,142.175064 
	C485.193237,155.918533 527.017883,191.734146 548.735596,250.516220 
	C550.214233,254.518463 552.036926,255.844986 556.202576,255.817413 
	C563.499756,255.769119 570.859009,254.891541 578.111450,256.594696 
	C584.416565,258.075409 587.190796,261.306824 587.178528,267.825104 
	C587.172241,271.140259 586.615601,274.450897 586.423889,277.770325 
	C586.296631,279.974945 585.232910,282.369507 587.308594,284.294037 
	C590.238892,284.200775 589.668213,281.925415 589.964233,280.282196 
	C591.059570,274.202728 592.825256,272.735992 598.982605,272.622223 
	C603.554871,272.537781 607.893311,273.730774 612.232727,274.879639 
	C619.240479,276.735016 626.377563,276.811432 633.544189,276.719696 
	C635.512451,276.694458 637.546448,276.303650 639.950378,277.697998 
	C639.273621,283.192078 637.044067,288.417145 633.965942,292.994171 
	C630.696777,297.855225 630.632935,302.037689 634.230835,306.852905 
M390.672607,121.639046 
	C387.228607,130.036728 387.228607,130.036728 394.020233,131.850891 
	C395.014984,129.812302 394.881348,127.994453 392.872131,126.669373 
	C390.709290,125.242966 390.387848,123.292572 391.585938,120.626785 
	C393.392059,118.914680 395.601227,120.861382 397.467957,120.319344 
	C398.108856,116.400063 394.917328,115.972198 393.144806,114.125816 
	C391.544983,116.447632 391.251312,118.725769 390.672607,121.639046 
M219.731201,312.731995 
	C322.357330,312.763000 424.983612,312.727600 527.609497,312.896973 
	C542.913452,312.922241 558.253845,311.989441 573.532166,313.692596 
	C580.402710,314.458496 580.139160,314.477386 581.053650,307.337280 
	C582.370361,297.056335 580.951172,286.679230 582.488586,276.423340 
	C584.676392,261.828522 582.369507,259.206879 567.650330,259.202209 
	C464.858612,259.169739 362.066864,259.119934 259.275146,259.090729 
	C244.781204,259.086609 230.285583,259.045776 215.793839,259.245697 
	C206.198273,259.378052 203.061234,262.487946 204.347305,271.211456 
	C205.983978,282.313202 205.950409,293.444641 206.190598,304.595367 
	C206.409424,314.754028 206.516052,314.745728 216.307663,312.955658 
	C217.122040,312.806763 217.964615,312.812134 219.731201,312.731995 
M455.553467,447.975098 
	C453.455292,441.994354 450.897217,436.221069 448.040497,430.559143 
	C446.450531,427.407898 443.915436,426.937622 440.936676,427.369995 
	C437.511353,427.867188 438.225189,430.692139 438.191956,432.880249 
	C438.098328,439.042786 438.170441,445.207764 438.169006,451.371796 
	C438.166748,461.367249 438.218567,471.363312 438.124847,481.357941 
	C438.081848,485.942413 435.952637,489.394806 431.570038,491.042694 
	C427.918091,492.415802 424.702789,491.394104 422.040131,488.573883 
	C419.787781,486.188293 419.612183,483.237579 419.619415,480.178101 
	C419.657227,464.185150 419.629272,448.192078 419.671906,432.199188 
	C419.679474,429.362793 419.183228,427.333008 415.623871,427.349670 
	C412.031921,427.366547 412.185242,429.710693 412.178833,432.101562 
	C412.156067,440.597626 412.013672,449.096375 412.184845,457.588684 
	C412.272369,461.930145 410.533020,463.483429 406.245056,463.373291 
	C397.920959,463.159485 389.583374,463.174805 381.259033,463.390717 
	C377.019714,463.500702 375.710419,461.673370 375.813171,457.708069 
	C375.990021,450.882294 375.921478,444.047882 375.845032,437.218323 
	C375.724915,426.493103 377.216583,427.075134 365.960388,427.341705 
	C360.940125,427.460632 358.719666,425.304535 357.617096,420.793549 
	C355.769836,413.235931 355.555817,405.668610 356.703735,398.005096 
	C359.242462,381.056274 361.849609,364.159149 378.100800,353.860321 
	C379.362335,353.060883 379.860718,351.880371 379.481140,350.422760 
	C379.131378,349.079742 377.970673,348.507385 376.814972,348.551880 
	C372.032837,348.735901 368.255615,346.087982 364.176422,344.288452 
	C358.586884,341.822540 353.026886,340.146393 346.838837,342.519348 
	C335.160980,346.997467 330.523529,358.972351 331.673492,370.122711 
	C332.444611,377.600006 335.566864,384.281525 339.623871,390.410522 
	C347.337341,402.063354 348.102966,413.925232 341.790039,426.331360 
	C340.506927,428.852783 339.385620,431.456268 338.113800,433.983765 
	C331.567902,446.992188 327.490265,460.452545 329.197083,475.316589 
	C331.098999,491.880096 343.133972,505.160400 359.363434,507.396301 
	C365.939575,508.302338 372.636566,508.370148 379.284119,508.710785 
	C393.946716,509.462067 408.568604,508.371918 423.209656,507.799438 
	C440.162964,507.136597 453.888550,496.325928 457.651550,479.761322 
	C460.031921,469.283020 459.086731,458.919464 455.553467,447.975098 
M494.128540,255.722992 
	C500.347473,255.353714 500.679993,254.875320 498.135895,249.334839 
	C497.096283,247.070801 495.942810,244.839417 494.632751,242.722122 
	C476.737640,213.800140 451.438843,195.198639 418.074127,187.810196 
	C416.211823,187.397797 413.541168,187.483337 413.543732,184.417679 
	C415.260895,183.055893 416.953278,183.671524 418.504669,184.032257 
	C455.487823,192.631836 483.500610,213.329453 501.245026,246.954666 
	C504.948151,253.972031 508.916992,256.780457 516.533691,255.814774 
	C521.881958,255.136719 522.543213,254.852158 520.313171,249.819778 
	C499.703400,203.312531 464.540588,175.362427 414.149933,167.138580 
	C404.265503,165.525436 404.331482,165.890854 404.183594,176.017197 
	C403.836029,199.819061 405.186157,223.589569 405.345825,247.380142 
	C405.390198,253.992996 406.759735,255.387756 413.381927,255.749268 
	C423.709991,256.313110 433.998535,255.165192 444.350952,255.553009 
	C460.616425,256.162384 476.921204,255.721817 494.128540,255.722992 
M291.881775,244.397293 
	C290.408600,247.825760 287.816193,250.815018 287.544647,254.548767 
	C288.811096,256.028351 290.233704,255.696991 291.510925,255.697235 
	C305.820465,255.700012 320.131195,255.758881 334.438904,255.583328 
	C339.678406,255.519043 345.168579,254.702118 350.122894,255.097870 
	C358.257599,255.747681 366.334564,255.279831 374.420532,255.662506 
	C378.605072,255.860550 380.524017,253.816956 381.317352,249.556732 
	C382.352478,243.998154 381.056244,238.555893 381.351013,233.007843 
	C382.348602,214.231628 381.856506,195.377701 382.017792,176.554199 
	C382.045441,173.325333 380.895782,171.148315 378.480591,168.835312 
	C374.724457,165.238129 370.928802,167.051071 367.250885,167.811035 
	C334.597229,174.558273 307.388336,190.490891 286.365479,216.537674 
	C278.055664,226.833328 271.404358,238.167725 266.548126,250.504532 
	C265.928864,252.077667 264.347382,254.567154 266.820404,255.225464 
	C271.150452,256.378113 275.770447,255.954269 280.224030,255.465881 
	C282.972748,255.164459 283.273926,252.186905 284.306061,250.203873 
	C302.445862,215.352463 330.443878,193.131973 368.800690,184.186188 
	C370.596161,183.767456 372.593872,182.604187 374.371887,184.461426 
	C374.558075,187.271622 372.268188,187.142029 370.667969,187.577408 
	C367.783264,188.362305 364.789490,188.762039 361.927948,189.613831 
	C331.683899,198.616516 308.504242,216.743652 291.881775,244.397293 
M452.667603,351.145325 
	C455.159027,358.316376 454.730103,365.503143 453.049866,372.781128 
	C451.123077,381.126984 446.470825,388.423340 444.145355,396.592194 
	C443.075745,400.349457 441.921814,404.196533 444.192657,408.056824 
	C445.103699,407.895142 445.812897,407.914856 446.387268,407.646210 
	C464.315613,399.261444 478.492096,386.468567 490.009430,370.533081 
	C491.691528,368.205719 490.846588,366.822998 488.944183,365.109039 
	C480.977875,357.931946 478.646851,348.715271 482.226196,339.493347 
	C485.692413,330.562805 494.237030,324.878845 504.556396,324.721710 
	C510.881866,324.625336 517.209167,324.659393 523.534973,324.578308 
	C529.779419,324.498260 530.401611,323.715027 529.744934,317.044861 
	C528.148010,315.823730 526.253357,316.233795 524.466553,316.229767 
	C507.918579,316.192291 491.370453,316.222900 474.822479,316.175354 
	C468.724884,316.157806 462.635468,316.642273 456.571930,316.688232 
	C453.685486,316.710144 451.238556,315.898346 449.448883,319.505524 
	C447.477539,316.061829 444.673096,316.329956 441.819580,316.246918 
	C431.620300,315.949951 421.441223,317.445557 411.226257,316.389526 
	C407.216522,315.975006 405.531555,318.756287 407.229645,322.513824 
	C407.696594,323.547150 408.913086,324.462311 408.142242,325.646790 
	C405.437988,329.802155 407.498260,334.503632 407.691895,338.500275 
	C408.041351,345.713531 407.218536,352.962341 408.215088,360.212799 
	C408.959686,365.630219 410.422760,368.514984 415.442169,369.013885 
	C421.012390,369.567535 426.328278,366.276489 427.128204,361.827881 
	C428.026581,356.832092 428.826569,351.811920 429.938293,346.862793 
	C431.582916,339.541321 442.360168,335.942261 447.504181,341.249603 
	C449.818146,343.637054 450.813629,347.302368 452.667603,351.145325 
M359.264221,336.459778 
	C359.402069,337.106689 359.353363,338.183075 359.705719,338.336121 
	C364.993134,340.632385 369.877228,343.917145 375.583862,345.159668 
	C377.154968,345.501770 378.339661,344.573730 378.724670,342.711517 
	C379.258270,340.130829 379.490997,337.581024 379.672028,334.946838 
	C379.981903,330.438599 378.457855,325.893341 380.280426,321.363007 
	C381.308472,318.807770 380.561432,315.977142 376.896362,316.427734 
	C369.857422,317.293091 362.872742,316.470367 355.860565,316.360077 
	C344.662598,316.183960 333.459351,316.256073 322.259216,316.336945 
	C316.472595,316.378693 310.524414,317.255798 304.941620,316.875183 
	C290.632446,315.899536 276.371338,316.702057 262.097046,316.459778 
	C260.096039,316.425812 257.329376,315.698120 257.422546,319.219025 
	C257.504150,322.303528 258.323730,324.715057 262.290497,324.643951 
	C269.113342,324.521667 275.952606,324.463867 282.764526,324.796844 
	C291.247040,325.211456 298.785095,327.785797 303.452606,335.659668 
	C309.772400,346.320831 307.865387,356.119415 299.175995,365.050690 
	C297.643402,366.625946 295.654510,367.749023 297.534943,370.356140 
	C308.211243,385.158447 321.178894,397.372803 337.453857,405.876129 
	C338.640076,406.495911 339.930511,407.281525 341.113983,406.109528 
	C342.199432,405.034637 341.832764,403.565887 341.382660,402.333221 
	C339.953735,398.419922 338.112183,394.719391 335.921875,391.144897 
	C332.006195,384.754761 328.735138,378.081268 328.042633,370.410309 
	C326.940826,358.205902 332.012939,342.708344 346.438354,339.277557 
	C349.022888,338.662903 351.635437,338.127838 354.262512,337.743805 
	C356.025238,337.486176 356.263367,333.520325 359.264221,336.459778 
M413.880493,160.673141 
	C436.213379,163.783096 456.709747,171.689743 475.220581,184.543671 
	C499.411530,201.341888 517.038513,223.420853 527.914551,250.842117 
	C528.628174,252.641296 528.925415,255.199295 531.256531,255.429932 
	C535.792847,255.878754 540.400879,256.171478 544.727417,255.234680 
	C545.393616,252.697769 544.419312,251.053223 543.793213,249.369720 
	C525.402283,199.914017 490.866486,167.176300 441.000183,150.496841 
	C433.126007,147.863083 425.015106,145.762558 416.647705,145.257904 
	C412.754547,145.023102 407.959229,150.751343 407.340576,155.980698 
	C406.799469,160.554642 410.746155,159.537247 413.880493,160.673141 
M274.245697,222.807846 
	C298.223450,188.279816 331.308746,167.873917 373.805115,160.261002 
	C367.516113,155.137131 369.447021,150.629929 372.856110,146.462692 
	C370.186798,144.648880 368.045837,145.396576 365.999054,145.810059 
	C307.987946,157.529129 267.780762,190.890228 245.180038,245.492050 
	C240.954620,255.700363 241.190460,255.617249 252.186813,255.801758 
	C256.189667,255.868927 258.123657,254.503510 259.497192,250.777985 
	C263.080963,241.057465 268.131592,232.044556 274.245697,222.807846 
M435.669159,406.331116 
	C434.973633,398.925171 437.081146,392.222229 440.471954,385.722137 
	C445.079926,376.888855 448.371307,367.667267 446.683563,357.440125 
	C446.155243,354.238525 446.146820,349.784882 442.106689,349.519501 
	C437.709564,349.230682 438.383698,353.752533 437.886749,356.695190 
	C435.595123,370.265076 425.252014,377.873657 411.638947,375.840302 
	C410.079987,375.607452 408.809204,375.309052 407.663574,376.843231 
	C406.328156,378.631500 407.149292,379.818115 408.266449,381.224762 
	C409.672302,382.994934 409.764923,385.123718 408.241241,386.731689 
	C406.141022,388.948120 406.229645,391.511871 406.251556,394.185272 
	C406.298004,399.850769 406.425018,405.519897 406.278595,411.181274 
	C406.174622,415.202484 405.841827,419.027069 411.691193,418.798370 
	C412.495850,418.766937 413.656830,419.604553 414.116913,420.364349 
	C416.782166,424.765839 419.598938,423.447266 422.749939,420.949829 
	C426.462341,418.007355 430.348053,417.930847 434.227173,420.800568 
	C435.624573,421.834290 436.884705,423.530640 439.297028,422.014008 
	C438.758179,416.991302 435.723206,412.456970 435.669159,406.331116 
M504.307556,394.783264 
	C491.698425,409.729797 476.826630,421.823822 459.348267,430.694336 
	C454.150116,433.332489 454.139679,435.865112 457.974091,443.736755 
	C460.302795,448.517273 463.239380,446.481903 466.200043,444.987854 
	C490.823029,432.562622 510.679321,414.751404 526.056702,391.894775 
	C530.306274,385.578369 534.462708,379.215240 537.116577,371.947906 
	C534.174683,370.178955 531.297791,370.675232 528.541443,370.356506 
	C523.140381,369.732025 519.653809,371.596130 517.062256,376.679749 
	C513.820312,383.039398 509.452515,388.795258 504.307556,394.783264 
M277.472778,412.022827 
	C290.587646,426.021942 305.610199,437.463989 322.908875,445.833740 
	C324.474304,446.591187 326.556641,448.389832 327.871735,446.623199 
	C330.447723,443.162598 332.394623,439.022095 332.818054,434.801453 
	C333.069946,432.290314 329.342316,431.606842 327.248566,430.481598 
	C303.837494,417.899933 284.936096,400.562805 271.022888,377.838470 
	C266.426605,370.331390 259.874573,368.415405 250.488052,372.044342 
	C256.922455,386.885284 266.378754,399.569672 277.472778,412.022827 
M612.496216,317.647064 
	C619.906250,317.042572 627.251709,319.043427 635.029358,318.692078 
	C633.949646,312.967407 631.148865,308.618805 628.506165,304.270111 
	C626.549316,301.049988 626.425537,298.411133 628.576782,295.126282 
	C631.438660,290.756195 633.847961,286.042694 635.173340,280.123016 
	C623.274109,280.717499 612.404175,278.393738 601.467529,276.351410 
	C596.244873,275.376129 594.821838,277.021362 594.202209,282.580963 
	C593.226135,291.338898 592.098633,300.082855 591.313660,308.857666 
	C591.014832,312.197479 589.436829,315.591003 591.020386,319.254639 
	C597.925232,318.177979 604.674255,317.295441 612.496216,317.647064 
M162.424194,280.099091 
	C159.243744,280.495575 155.851105,279.276062 152.675690,281.161957 
	C153.556519,286.229858 155.805664,290.529724 158.469955,294.473022 
	C160.982559,298.191803 160.835861,301.151581 158.409576,304.848389 
	C155.768799,308.872009 153.267181,313.152069 152.326691,318.923767 
	C167.558441,317.390839 182.028259,317.034973 197.092529,319.063141 
	C195.691574,306.487549 194.462418,294.794525 193.060577,283.122223 
	C192.240295,276.292236 190.785980,275.413544 183.967148,276.606812 
	C177.105621,277.807526 170.387024,279.863922 162.424194,280.099091 
M287.845856,370.261414 
	C283.978638,370.849182 279.838776,369.426727 276.217468,371.715210 
	C275.604401,374.061310 277.008789,375.617615 278.027985,377.297577 
	C284.822357,388.496765 293.598419,398.018707 303.331207,406.657806 
	C311.826141,414.198181 321.315155,420.331390 331.415588,425.546295 
	C335.284943,427.544037 337.706146,426.630127 339.133209,422.599030 
	C339.576416,421.347046 340.086731,420.111633 340.663147,418.915283 
	C342.545349,415.009125 341.473846,412.554413 337.538483,410.524750 
	C320.058472,401.509521 305.955261,388.541687 294.453064,372.694336 
	C292.896210,370.549316 291.302277,369.359558 287.845856,370.261414 
M511.617523,371.749298 
	C506.804565,369.246155 501.447479,371.041718 496.447906,369.860138 
	C495.202789,369.565857 494.540283,370.999969 493.873291,371.934418 
	C481.774658,388.884766 466.610321,402.303497 447.965332,411.677765 
	C445.545074,412.894592 444.874542,414.463379 445.986908,416.905182 
	C446.675110,418.415863 447.175720,420.014404 447.899475,421.506134 
	C450.729004,427.338470 451.715790,427.722717 457.387146,424.770905 
	C471.983765,417.173859 485.019562,407.471710 495.861420,395.064209 
	C501.955780,388.089752 508.354218,381.236572 511.617523,371.749298 
M379.713989,371.361633 
	C379.446625,367.148590 380.522156,362.833862 378.974213,358.451294 
	C374.987061,358.994904 373.084717,361.794739 371.355286,364.529602 
	C361.130524,380.698792 358.694672,398.509064 360.719055,417.150452 
	C360.969025,419.451996 361.132233,422.551849 364.440094,422.897858 
	C367.541656,423.222321 371.131989,424.826538 373.171600,420.575653 
	C373.769257,419.330078 375.167847,418.786957 376.547607,418.761688 
	C379.894775,418.700287 380.673462,416.684509 380.664062,413.811249 
	C380.642944,407.332977 380.660828,400.853455 380.774872,394.376404 
	C380.823303,391.626709 380.636627,389.200531 378.127014,387.324432 
	C376.150146,385.846619 375.659668,383.328674 377.375946,381.600647 
	C380.138397,378.819458 379.683441,375.578186 379.713989,371.361633 
M409.709656,100.946404 
	C404.220856,95.705490 400.207214,95.049149 397.593109,99.491615 
	C400.991516,99.650963 403.438904,100.639061 403.467224,104.663391 
	C403.557220,117.461250 403.881775,130.257797 404.173737,143.053528 
	C404.217377,144.966248 403.653809,147.003891 404.883545,148.822632 
	C411.257599,143.738586 413.552765,136.091873 410.606384,128.428879 
	C408.526031,123.018211 408.076202,117.877655 410.688660,112.534767 
	C412.480225,108.870728 412.294800,105.128296 409.709656,100.946404 
M430.023865,422.529205 
	C426.678314,422.007019 423.813080,423.537720 423.632568,426.597687 
	C423.159393,434.617706 423.472900,442.684143 423.472900,451.558197 
	C427.199158,448.997345 430.425232,449.924591 433.916809,450.733917 
	C435.021271,442.840332 434.789307,435.379303 434.257965,427.933746 
	C434.100281,425.723938 432.845917,423.856293 430.023865,422.529205 
M431.243286,460.187714 
	C428.828339,461.572968 426.459412,460.134277 423.637085,459.740082 
	C423.637085,465.873016 423.637085,471.682892 423.637085,478.073334 
	C427.087585,476.023071 430.396393,476.666595 433.896393,477.786102 
	C435.095917,472.287292 434.546692,467.173492 434.442780,462.093719 
	C434.413910,460.681732 433.757355,459.472137 431.243286,460.187714 
M399.143524,459.752594 
	C401.962341,459.245911 405.350769,460.889008 407.718170,457.718628 
	C402.622589,454.981659 383.341766,455.522186 380.026642,459.174988 
	C386.500763,460.226471 392.398468,459.587738 399.143524,459.752594 
M430.476410,363.791962 
	C430.251984,364.366730 430.027557,364.941498 429.803131,365.516266 
	C432.715210,363.391205 433.602234,360.408691 434.033997,357.103149 
	C434.701508,351.992554 435.027832,346.592926 441.702362,344.913788 
	C437.568024,341.584015 435.926849,341.986298 434.322601,346.170502 
	C432.222504,351.647888 432.246613,357.588898 430.476410,363.791962 
M384.237549,165.962021 
	C385.493164,162.111359 384.072662,159.713470 380.362183,158.446747 
	C377.120361,163.479614 378.206299,165.831680 384.237549,165.962021 
M383.273834,432.720093 
	C383.544281,437.305939 382.603607,441.983307 384.596283,446.459259 
	C384.596283,439.354218 384.596283,432.249146 384.596283,423.816437 
	C383.002380,427.226990 383.423645,429.559143 383.273834,432.720093 
M406.943634,444.933777 
	C407.049164,445.546631 407.154663,446.159485 407.260193,446.772339 
	C407.361481,446.758057 407.462799,446.743774 407.564117,446.729492 
	C407.564117,439.080811 407.564117,431.432159 407.564117,423.783508 
	C407.345551,423.785950 407.127014,423.788391 406.908447,423.790802 
	C406.908447,430.619110 406.908447,437.447388 406.943634,444.933777 
M385.282898,147.765808 
	C382.372345,146.767151 382.160553,147.075638 382.182953,152.652344 
	C383.919495,152.624313 385.794586,153.300751 386.997437,151.343658 
	C387.891571,149.888931 387.044250,148.860214 385.282898,147.765808 
M402.936096,407.894897 
	C402.936096,402.360138 402.936096,396.825378 402.936096,391.290588 
	C402.769135,391.294495 402.602203,391.298401 402.435242,391.302307 
	C402.435242,398.078461 402.435242,404.854645 402.435242,411.630798 
	C402.604004,411.630463 402.772766,411.630096 402.941528,411.629761 
	C402.941528,410.646271 402.941528,409.662750 402.936096,407.894897 
M386.730896,137.195831 
	C385.051636,140.717850 385.051636,140.717850 390.307281,140.885223 
	C390.846527,138.393570 388.771423,138.032944 386.730896,137.195831 
M398.974701,107.190742 
	C398.010498,106.388680 397.046295,105.586617 396.031311,104.742294 
	C394.875824,106.211723 394.067993,107.374580 394.985199,109.377029 
	C396.218689,108.083611 398.689331,110.916084 398.974701,107.190742 
M398.948669,393.463074 
	C398.890289,392.676361 398.831940,391.889648 398.773590,391.102936 
	C398.643219,391.111816 398.512817,391.120697 398.382416,391.129578 
	C398.382416,396.605255 398.382416,402.080933 398.382416,407.556610 
	C398.575867,407.554504 398.769287,407.552399 398.962738,407.550323 
	C398.962738,403.113098 398.962738,398.675903 398.948669,393.463074 
z"/>
<path fill="#FFFFFF" opacity="1.000000" stroke="none" 
	d="
M557.743164,280.401001 
	C560.446777,286.327454 560.268982,293.286469 566.305786,296.968109 
	C563.901245,300.816437 560.026794,301.460907 553.842590,298.985901 
	C554.663147,296.654327 557.171936,293.878448 553.812988,291.846008 
	C552.103210,290.811462 549.864075,290.945282 548.221741,292.492798 
	C545.966003,294.618317 547.201355,296.680695 549.174744,298.685822 
	C544.954407,301.987366 540.945679,299.893188 536.331055,299.974976 
	C541.163269,292.294617 543.233826,284.262085 545.996155,276.521576 
	C548.036011,270.805634 550.817871,269.355988 557.260620,272.063873 
	C556.303101,274.700378 556.131897,277.439392 557.743164,280.401001 
z"/>
<path fill="#FFFFFF" opacity="1.000000" stroke="none" 
	d="
M489.867798,299.340454 
	C486.094147,299.520691 483.593170,299.291809 484.274231,294.548706 
	C484.582947,292.398712 483.379944,289.670685 480.772400,288.466766 
	C477.679169,292.219849 477.714783,292.636780 481.425140,296.941559 
	C478.632751,299.998199 473.859589,300.197388 469.921021,297.503693 
	C473.150055,289.221619 472.637390,280.983887 470.376648,272.466187 
	C473.924683,269.863861 484.868713,269.808441 488.191681,272.747375 
	C490.631958,274.905640 491.637604,277.514832 490.271423,280.773163 
	C486.814392,289.018158 487.488556,291.353058 494.731323,296.645660 
	C494.419495,299.446655 492.221527,299.177521 489.867798,299.340454 
M482.539001,280.880035 
	C484.038544,279.416046 484.631165,277.816498 482.530396,276.515228 
	C481.293152,275.748840 479.778229,276.130188 479.446655,277.698669 
	C479.062256,279.517365 478.479126,281.926819 482.539001,280.880035 
z"/>
<path fill="#FFFFFF" opacity="1.000000" stroke="none" 
	d="
M422.027771,294.793701 
	C421.279053,298.561401 420.074402,301.906128 415.228058,299.843994 
	C413.631378,299.164642 412.313232,300.096497 410.863220,300.223328 
	C406.704620,300.587036 402.662933,300.354736 400.324249,296.273956 
	C398.024689,292.261475 398.455841,288.195526 401.453583,284.656494 
	C402.961090,282.876862 403.557678,281.239105 403.198395,278.816376 
	C402.744293,275.754364 404.226166,273.203125 407.310150,272.184387 
	C410.402405,271.162903 413.301727,271.840363 415.449768,274.399048 
	C417.551605,276.902710 416.559052,279.348175 414.977020,281.719635 
	C414.199951,282.884460 412.703674,283.905609 414.089050,285.965179 
	C417.347961,285.307404 420.939789,284.140930 423.759338,286.878113 
	C424.353851,290.024261 418.305969,291.004272 422.027771,294.793701 
M406.808960,293.961456 
	C408.274323,294.906769 409.737671,295.458649 411.425995,293.786499 
	C410.768982,291.608917 409.919952,288.986725 407.304382,289.233551 
	C404.974396,289.453430 405.162384,291.690887 406.808960,293.961456 
z"/>
<path fill="#FFFFFF" opacity="1.000000" stroke="none" 
	d="
M346.930359,287.132935 
	C348.414429,290.615875 348.761688,294.120422 352.112885,296.344330 
	C354.108246,297.668518 352.452972,299.704010 350.769440,299.895844 
	C347.768799,300.237701 344.541809,301.073334 341.463135,298.913177 
	C342.021667,296.501251 344.169617,293.689606 341.001251,291.880402 
	C339.142883,290.819244 336.668243,290.664673 334.956329,292.381836 
	C332.940765,294.403595 333.569763,296.624176 335.987244,298.574097 
	C332.057251,301.813721 328.374451,299.903473 324.313660,299.828156 
	C328.327637,290.568390 332.192444,281.708771 334.210724,271.780487 
	C336.248688,270.694061 339.010986,271.571869 341.559113,270.934479 
	C342.701874,270.648621 344.110687,271.535767 343.719482,272.955322 
	C342.285522,278.158325 345.532928,282.226410 346.930359,287.132935 
z"/>
<path fill="#FFFFFF" opacity="1.000000" stroke="none" 
	d="
M372.927673,280.929382 
	C369.830933,283.670929 370.112427,286.307800 372.283051,289.056000 
	C373.829041,291.013275 375.259155,293.087738 377.396759,294.469849 
	C378.392487,295.113617 379.534576,295.619934 379.162323,297.098541 
	C378.779236,298.620117 377.571625,299.259216 376.161407,299.239014 
	C373.727295,299.204132 371.163971,299.945801 368.537964,298.083344 
	C369.761475,295.216461 369.575928,292.503998 366.015259,290.764404 
	C363.428253,293.137329 364.857697,295.384003 366.677216,297.695801 
	C363.281738,300.347321 360.010803,299.107635 356.718353,298.670990 
	C358.183289,290.542328 359.004364,282.719971 356.595734,274.920105 
	C356.161865,273.515106 356.970154,272.724396 358.082703,272.143677 
	C360.421722,270.922821 364.832001,271.699402 367.209686,273.785645 
	C367.374603,275.937683 362.475800,276.806732 365.532898,279.862610 
	C367.823608,279.315796 368.659760,277.480835 369.256104,275.600861 
	C370.288849,272.345154 374.651520,270.358276 377.783142,271.906006 
	C379.454620,272.732086 379.991333,273.925110 378.505219,275.423462 
	C376.748505,277.194611 374.949677,278.923981 372.927673,280.929382 
z"/>
<path fill="#FFFFFF" opacity="1.000000" stroke="none" 
	d="
M258.742462,278.593536 
	C259.514771,281.842560 259.514771,281.842560 263.975220,280.738251 
	C265.590729,283.190552 266.014435,286.009491 264.689178,288.546234 
	C263.336456,291.135529 261.151337,287.972534 259.184479,288.667786 
	C257.959839,290.404602 257.422699,292.687866 259.328339,293.868744 
	C263.295135,296.326874 266.020874,292.836975 269.050446,290.740875 
	C272.140106,292.822418 271.049072,296.563690 274.327576,299.405487 
	C264.926239,299.405487 257.121552,299.405487 249.163345,299.405487 
	C251.707291,290.171387 252.029648,281.529602 248.991486,272.319244 
	C256.002533,270.696136 263.276062,272.565216 270.364319,271.000580 
	C271.826813,274.080505 270.727783,276.480743 269.213776,278.285309 
	C267.459412,280.376282 266.124390,277.937469 264.637207,277.133911 
	C262.476685,275.966431 260.473785,276.300507 258.742462,278.593536 
z"/>
<path fill="#FFFFFF" opacity="1.000000" stroke="none" 
	d="
M236.280914,298.946899 
	C231.517548,298.535797 227.458542,301.370789 222.703491,300.775116 
	C226.095428,291.284943 225.309982,282.320129 223.214645,273.109894 
	C229.465530,268.996246 241.238235,271.293427 244.877762,277.672363 
	C248.997879,284.893616 245.411163,294.133453 236.280914,298.946899 
M239.342697,280.599976 
	C235.344025,276.656891 232.070419,276.419891 231.447586,280.149078 
	C230.698242,284.635803 230.649887,289.261993 231.693268,293.782104 
	C238.104736,292.895142 240.433685,289.052765 239.342697,280.599976 
z"/>
<path fill="#FFFFFF" opacity="1.000000" stroke="none" 
	d="
M293.286804,271.633606 
	C295.126465,271.691956 296.603455,270.538544 297.914124,271.735077 
	C299.002045,273.366730 297.845459,274.641724 297.470734,276.031647 
	C296.673279,278.989990 295.360992,280.275909 292.714813,277.639587 
	C291.163391,276.093933 289.380157,276.258057 287.645996,277.077850 
	C285.595856,278.046967 285.812775,279.906158 285.836121,281.545624 
	C287.966187,282.992767 289.489685,280.302795 291.604218,281.529022 
	C292.161530,283.795074 293.483673,286.364777 291.649933,288.760498 
	C290.122772,290.755707 288.330292,288.204437 286.452942,288.518097 
	C284.827332,290.117859 284.561157,292.453857 286.211945,293.655792 
	C290.246582,296.593384 293.132904,292.789764 296.171539,290.942352 
	C296.780365,291.415222 297.353638,291.633087 297.510529,292.019867 
	C298.423370,294.270172 299.238403,296.560089 300.268555,299.325317 
	C292.167023,299.325317 284.532349,299.325317 276.453888,299.325317 
	C278.945587,290.299988 280.369232,281.794525 276.191284,272.700378 
	C281.600342,270.743896 287.330109,272.108826 293.286804,271.633606 
z"/>
<path fill="#FFFFFF" opacity="1.000000" stroke="none" 
	d="
M446.978821,284.109741 
	C447.012726,280.193848 447.238373,276.698547 444.368439,273.331665 
	C449.717010,273.245087 454.558655,270.479095 459.870667,272.133270 
	C463.053589,273.124420 465.601440,274.888000 466.043335,278.515686 
	C466.488922,282.173401 464.862762,285.008423 461.959198,287.016205 
	C460.493500,288.029724 458.753235,288.782593 457.028015,289.253418 
	C454.252289,290.010834 453.338043,292.000031 454.489594,294.124268 
	C457.258514,299.231964 454.209808,299.319763 450.589691,299.186035 
	C448.835815,299.121246 446.902893,299.820953 445.135437,297.666107 
	C447.424530,293.739014 447.002838,289.135986 446.978821,284.109741 
M453.366821,281.191193 
	C453.801483,283.523743 455.252777,284.168213 457.326996,283.376801 
	C459.022797,282.729675 459.928284,281.408722 459.677338,279.517853 
	C459.447571,277.786682 458.265350,276.924225 456.658875,276.807770 
	C454.102570,276.622437 453.125793,278.061310 453.366821,281.191193 
z"/>
<path fill="#FFFFFF" opacity="1.000000" stroke="none" 
	d="
M314.583618,297.147278 
	C311.199921,300.663788 307.728058,299.194702 304.042145,298.417175 
	C306.674408,291.326233 306.984070,278.312653 303.206757,273.368958 
	C308.199463,272.700012 312.725159,271.186401 317.459686,271.909943 
	C320.841919,272.426819 323.861328,273.958252 324.761719,277.753632 
	C325.636108,281.439514 323.934723,284.226074 321.258087,286.480591 
	C320.137146,287.424744 318.816742,288.428375 317.441254,288.721954 
	C311.907532,289.902954 312.479340,293.005066 314.583618,297.147278 
M316.299042,283.565674 
	C318.438263,282.332397 319.495544,280.607758 318.140869,278.281799 
	C317.355255,276.932861 315.887817,276.332184 314.289734,276.756256 
	C311.915558,277.386261 312.175140,279.365356 312.233887,281.169220 
	C312.306427,283.396057 313.186066,284.648254 316.299042,283.565674 
z"/>
<path fill="#FFFFFF" opacity="1.000000" stroke="none" 
	d="
M529.314270,285.574768 
	C527.279358,289.974396 528.213684,293.644684 530.893799,296.907227 
	C527.601562,300.008606 523.254761,300.171417 519.443115,297.524414 
	C525.168396,288.395264 519.851013,282.512634 511.302704,274.587677 
	C514.521545,271.745697 518.145935,271.731934 521.830505,272.637787 
	C523.879883,273.141571 523.129761,274.808167 522.925293,276.330322 
	C522.730286,277.782196 523.780579,278.884827 525.256348,279.066528 
	C526.407104,279.208221 527.291443,278.217133 527.187683,277.233856 
	C526.977966,275.246613 526.028137,272.789490 529.154602,272.789490 
	C532.294312,272.789490 536.031860,269.977509 538.854309,274.421967 
	C534.981262,277.442963 531.966370,281.118073 529.314270,285.574768 
z"/>
<path fill="#FFFFFF" opacity="1.000000" stroke="none" 
	d="
M506.494751,280.770966 
	C506.998108,286.250580 504.381073,291.732819 508.848572,296.301819 
	C509.991547,297.470764 508.584106,298.961670 507.145966,299.069244 
	C504.088501,299.297913 500.927521,299.722961 498.312378,298.227417 
	C500.378418,289.943115 502.256592,282.050568 498.350311,273.713257 
	C500.486298,270.816284 503.738892,271.656860 506.698578,272.187408 
	C508.309784,272.476227 508.993042,273.805969 508.065063,275.656769 
	C507.336945,277.108917 507.034851,278.774689 506.494751,280.770966 
z"/>
</svg>